<?xml version="1.0" encoding="utf-8"?>
<!-- Generator: Adobe Illustrator 25.4.1, SVG Export Plug-In . SVG Version: 6.00 Build 0)  -->
<svg version="1.1" id="Warstwa_1" xmlns="http://www.w3.org/2000/svg" xmlns:xlink="http://www.w3.org/1999/xlink" x="0px" y="0px"
	 viewBox="0 0 434.17 261.01" style="enable-background:new 0 0 434.17 261.01;" xml:space="preserve">
<style type="text/css">
	.st0{fill:#FFFFFF;}
	.st1{fill:#006991;}
</style>
<g>
	<path class="st0" d="M401.95,92.57h-25.46V68.11h-27.45V192.9h16.22v24.21h-60.15V192.9h16.22V68.11h-27.7v24.46h-25.46V43.9
		h133.78V92.57z"/>
	<path class="st0" d="M165.85,105.29c0,10.98-3.08,19.68-9.23,26.08c-6.16,6.41-14.48,9.61-24.96,9.61H92.23v51.91h16.22v24.21H49.8
		V192.9h14.73V68.11H49.8V43.9h86.11c9.15,0,16.43,2.83,21.84,8.49c5.41,5.66,8.11,13.31,8.11,22.96V105.29z M138.15,103.8V82.08
		c0-9.32-3.49-13.98-10.48-13.98H92.23v49.92h35.44C134.66,118.02,138.15,113.28,138.15,103.8z"/>
	<path class="st1" d="M127.67,68.11H92.23v49.92h35.44c6.99,0,10.48-4.74,10.48-14.23V82.08C138.15,72.77,134.66,68.11,127.67,68.11
		z M132.55,103.8c0,8.63-2.94,8.63-4.88,8.63H97.83V73.71h29.84c1.94,0,4.88,0,4.88,8.38V103.8z"/>
	<g>
		<path class="st1" d="M28.37,123.74v1.37h14.08v-1.27h1.75v4.96h-1.75v-1.7h-6.41v5.95h6.41v-1.49h1.75v5.04h-1.75v-1.54H28.37
			v1.54h-1.75v-5.04h1.75v1.49h5.93v-5.95h-5.93v1.7h-1.75v-5.07H28.37z"/>
		<g>
			<path class="st1" d="M32.09,151.36v1.87h-3.9v2.96h14.26v-2.28h1.75v6.43h-1.75v-2.15H28.19v2.79h3.9v1.87h-5.47v-11.5H32.09z"/>
			<path class="st1" d="M44.2,97.5v11.35h-1.75v-1.49H28.37v1.49h-1.75V97.5h4.43v1.87h-2.68v5.98h5.93v-5.6h1.75v5.6h6.41v-5.98
				h-2.89V97.5H44.2z"/>
		</g>
	</g>
	<path class="st0" d="M268.17,43.9l0.67,136.28c0,11.32-3.2,20.3-9.59,26.96c-6.39,6.66-14.9,9.98-25.52,9.98h-38.35
		c-10.62,0-19.13-3.33-25.52-9.98c-6.39-6.65-9.59-15.64-9.59-26.96V68.11h-14.98V43.9h42.68v134.78c0,9.48,3.41,14.23,10.23,14.23
		h34.69c6.99,0,10.48-4.74,10.48-14.23V43.9L268.17,43.9z"/>
	<path class="st1" d="M401.95,38.3H289.66h-21.49h-5.6h-24.79v140.38c0,8.63-2.94,8.63-4.88,8.63H198.2c-2.25,0-2.82-0.8-3.13-1.23
		c-0.56-0.78-1.5-2.78-1.5-7.4V38.3H44.2v35.41h14.73V187.3H44.2v35.41h69.85V187.3H97.83v-40.71h33.84c8.97,0,16.66-2.16,23-6.37
		v39.95c0,12.76,3.75,23.14,11.15,30.84c7.46,7.77,17.4,11.7,29.56,11.7h38.35c12.16,0,22.1-3.94,29.56-11.7
		c7.4-7.7,11.15-18.08,11.15-30.83V98.17h19.19h5.6v-5.6V73.71h16.51V187.3h-10.62h-5.6v5.6v24.21v5.6h5.6h60.15h5.6v-5.6V192.9
		v-5.6h-5.6h-10.62V73.71h16.25v18.86v5.6h5.6h25.46h5.6v-5.6V43.9v-5.6H401.95z M154.66,133.23c-5.93,5.17-13.59,7.76-23,7.76
		H92.23v51.91h16.22v24.21H49.8V192.9h14.73V68.11H49.8V43.9h86.11c1.3,0,2.56,0.08,3.78,0.19v29.62h14.98V133.23z M268.83,180.17
		c0,11.32-3.2,20.3-9.59,26.96c-6.39,6.66-14.9,9.98-25.52,9.98h-38.35c-10.62,0-19.13-3.33-25.52-9.98
		c-6.39-6.65-9.59-15.64-9.59-26.96V68.11h-14.98V43.9h42.68v134.78c0,9.48,3.41,14.23,10.23,14.23h34.69
		c6.99,0,10.48-4.74,10.48-14.23V43.9h19.19v48.67v5.6h5.6h0.67V180.17z M401.95,92.57h-25.46V68.11h-27.45V192.9h16.22v24.21
		h-60.15V192.9h16.22V68.11h-27.71v24.46h-25.46V43.9h10.25h123.53V92.57z"/>
</g>
</svg>
